name ./resultDataOpenSim/trcMotMarkerGrf/sub10/grf-05-07.mot
datacolumns 19
datarows 12
range 1.02400000 1.06800000
endheader

                time	     ground_force_vx	     ground_force_vy	     ground_force_vz	     ground_force_px	     ground_force_py	     ground_force_pz	   l_ground_force_vx	   l_ground_force_vy	   l_ground_force_vz	   l_ground_force_px	   l_ground_force_py	   l_ground_force_pz	     ground_torque_x	     ground_torque_y	     ground_torque_z	   l_ground_torque_x	   l_ground_torque_y	   l_ground_torque_z	
          1.02400000	          0.00000000	          0.00000000	          0.00000000	          0.00000000	          0.00000000	          0.00000000	         11.20179715	        221.46472877	         25.54075065	          0.07226651	         -0.10000000	         -0.12931330	          0.00000000	          0.00000000	          0.00000000	          0.00000000	         -1.05060211	          0.00000000	
          1.02800000	          0.00000000	          0.00000000	          0.00000000	          0.00000000	          0.00000000	          0.00000000	         13.05636531	        218.62993688	         25.92760139	          0.07144218	         -0.10000000	         -0.12944459	          0.00000000	          0.00000000	          0.00000000	          0.00000000	         -1.13954285	          0.00000000	
          1.03200000	          0.00000000	          0.00000000	          0.00000000	          0.00000000	          0.00000000	          0.00000000	         14.94978156	        217.71723068	         26.36578943	          0.07092991	         -0.10000000	         -0.12951402	          0.00000000	          0.00000000	          0.00000000	          0.00000000	         -1.23072448	          0.00000000	
          1.03600000	          0.00000000	          0.00000000	          0.00000000	          0.00000000	          0.00000000	          0.00000000	         16.75657555	        219.16566747	         26.82872050	          0.07086563	         -0.10000000	         -0.12942682	          0.00000000	          0.00000000	          0.00000000	          0.00000000	         -1.32971843	          0.00000000	
          1.04000000	          0.00000000	          0.00000000	          0.00000000	          0.00000000	          0.00000000	          0.00000000	         18.32924697	        223.27419787	         27.27017155	          0.07124578	         -0.10000000	         -0.12916588	          0.00000000	          0.00000000	          0.00000000	          0.00000000	         -1.44413227	          0.00000000	
          1.04400000	          0.00000000	          0.00000000	          0.00000000	          0.00000000	          0.00000000	          0.00000000	         19.54392251	        230.18705760	         27.61653167	          0.07195828	         -0.10000000	         -0.12877593	          0.00000000	          0.00000000	          0.00000000	          0.00000000	         -1.58263916	          0.00000000	
          1.04800000	          0.00000000	          0.00000000	          0.00000000	          0.00000000	          0.00000000	          0.00000000	         20.34919024	        239.91472374	         27.77358852	          0.07288686	         -0.10000000	         -0.12829751	          0.00000000	          0.00000000	          0.00000000	          0.00000000	         -1.75373937	          0.00000000	
          1.05200000	          0.00000000	          0.00000000	          0.00000000	          0.00000000	          0.00000000	          0.00000000	         20.78011014	        252.37099443	         27.65487374	          0.07393682	         -0.10000000	         -0.12777131	          0.00000000	          0.00000000	          0.00000000	          0.00000000	         -1.96460608	          0.00000000	
          1.05600000	          0.00000000	          0.00000000	          0.00000000	          0.00000000	          0.00000000	          0.00000000	         20.93291713	        267.41087860	         27.21300376	          0.07500309	         -0.10000000	         -0.12722722	          0.00000000	          0.00000000	          0.00000000	          0.00000000	         -2.22021050	          0.00000000	
          1.06000000	          0.00000000	          0.00000000	          0.00000000	          0.00000000	          0.00000000	          0.00000000	         20.93115718	        284.83074426	         26.45371636	          0.07597276	         -0.10000000	         -0.12665597	          0.00000000	          0.00000000	          0.00000000	          0.00000000	         -2.52274378	          0.00000000	
          1.06400000	          0.00000000	          0.00000000	          0.00000000	          0.00000000	          0.00000000	          0.00000000	         20.89845536	        304.30602594	         25.43400718	          0.07675679	         -0.10000000	         -0.12604046	          0.00000000	          0.00000000	          0.00000000	          0.00000000	         -2.87131958	          0.00000000	
          1.06800000	          0.00000000	          0.00000000	          0.00000000	          0.00000000	          0.00000000	          0.00000000	         20.94449223	        325.35443245	         24.24819910	          0.07730132	         -0.10000000	         -0.12540240	          0.00000000	          0.00000000	          0.00000000	          0.00000000	         -3.26199622	          0.00000000	
